<?xml version="1.0" encoding="UTF-8" standalone="no"?>
<!-- Created with Inkscape (http://www.inkscape.org/) -->

<svg
   width="16.751772mm"
   height="13.71158mm"
   viewBox="0 0 16.751772 13.71158"
   version="1.1"
   id="svg1"
   sodipodi:docname="app.svg"
   inkscape:version="1.3 (0e150ed, 2023-07-21)"
   inkscape:export-filename="app_512.png"
   inkscape:export-xdpi="776.32385"
   inkscape:export-ydpi="776.32385"
   xmlns:inkscape="http://www.inkscape.org/namespaces/inkscape"
   xmlns:sodipodi="http://sodipodi.sourceforge.net/DTD/sodipodi-0.dtd"
   xmlns:xlink="http://www.w3.org/1999/xlink"
   xmlns="http://www.w3.org/2000/svg"
   xmlns:svg="http://www.w3.org/2000/svg">
  <sodipodi:namedview
     id="namedview1"
     pagecolor="#505050"
     bordercolor="#ffffff"
     borderopacity="1"
     inkscape:showpageshadow="0"
     inkscape:pageopacity="0"
     inkscape:pagecheckerboard="1"
     inkscape:deskcolor="#505050"
     inkscape:document-units="mm"
     showguides="false"
     inkscape:zoom="13.662112"
     inkscape:cx="30.083197"
     inkscape:cy="24.666757"
     inkscape:window-width="1392"
     inkscape:window-height="1027"
     inkscape:window-x="0"
     inkscape:window-y="25"
     inkscape:window-maximized="0"
     inkscape:current-layer="layer1" />
  <defs
     id="defs1">
    <linearGradient
       id="linearGradient17"
       inkscape:collect="always">
      <stop
         style="stop-color:#800000;stop-opacity:1"
         offset="0"
         id="stop14" />
      <stop
         style="stop-color:#ffd5d5;stop-opacity:1"
         offset="0.61175883"
         id="stop15" />
      <stop
         style="stop-color:#803300;stop-opacity:1"
         offset="0.86047333"
         id="stop16" />
      <stop
         style="stop-color:#e9afaf;stop-opacity:1"
         offset="1"
         id="stop17" />
    </linearGradient>
    <linearGradient
       inkscape:collect="always"
       xlink:href="#linearGradient17"
       id="linearGradient8"
       x1="166.97662"
       y1="39.522484"
       x2="166.97662"
       y2="34.798492"
       gradientUnits="userSpaceOnUse"
       spreadMethod="pad" />
  </defs>
  <g
     inkscape:label="Layer 1"
     inkscape:groupmode="layer"
     id="layer1"
     transform="translate(-157.72377,-28.515662)">
    <ellipse
       style="fill:url(#linearGradient8);fill-opacity:1;stroke:#280b0b;stroke-width:0.264583"
       id="path7"
       cx="166.09966"
       cy="35.371452"
       rx="8.2435942"
       ry="6.7234988"
       inkscape:highlight-color="#c1b268"
       inkscape:label="path7" />
    <text
       xml:space="preserve"
       style="font-size:12.7px;fill:#550000;stroke:#1a1a1a;stroke-width:0.0661455"
       x="76.731651"
       y="52.839527"
       id="text1"><tspan
         sodipodi:role="line"
         id="tspan1"
         style="font-style:normal;font-variant:normal;font-weight:normal;font-stretch:normal;font-size:12.7px;font-family:Optima;-inkscape-font-specification:Optima;fill:#00ffff;stroke:#ff00ff;stroke-width:0.0661455"
         x="76.731651"
         y="52.839527" /></text>
    <text
       xml:space="preserve"
       style="font-style:normal;font-variant:normal;font-weight:normal;font-stretch:normal;font-size:50.8px;font-family:Optima;-inkscape-font-specification:Optima;fill:#00ffff;stroke:#ff00ff;stroke-width:0.264583"
       x="73.023071"
       y="60.621117"
       id="text2"><tspan
         sodipodi:role="line"
         id="tspan2"
         style="stroke-width:0.264583"
         x="73.023071"
         y="60.621117" /></text>
    <text
       xml:space="preserve"
       style="font-style:normal;font-variant:normal;font-weight:normal;font-stretch:normal;font-size:12.7px;font-family:Optima;-inkscape-font-specification:Optima;fill:#00ffff;stroke:#ff00ff;stroke-width:0.0661455"
       x="115.77413"
       y="51.245647"
       id="text3"><tspan
         sodipodi:role="line"
         style="stroke-width:0.0661455"
         x="115.77413"
         y="51.245647"
         id="tspan4" /></text>
    <path
       style="font-size:11.2889px;font-family:'American Typewriter';-inkscape-font-specification:'American Typewriter';fill:#2b0000;stroke:#ff2a2a;stroke-width:0.132291"
       d="m 159.99218,32.929603 q 0,-0.835379 -0.57573,-0.835379 -0.15805,0 -0.23707,0.02258 -0.18062,0.03387 -0.3048,0.03387 -0.14675,0 -0.24835,-0.101601 -0.1016,-0.112889 -0.1016,-0.270933 0,-0.395112 0.47413,-0.395112 0.0113,0 0.16933,0.01129 1.69334,0.112889 1.58045,0.112889 0.11289,0 0.11289,0 l 2.72062,-0.07902 q 0.079,0 0.58703,-0.03387 0.18062,-0.01129 0.32737,-0.01129 0.58703,0 0.58703,0.51929 0,0.09031 -0.0452,0.575734 -0.0339,0.361245 -0.0339,0.666045 0,0.395111 0.0226,0.553156 0.0452,0.327378 0.0452,0.485423 0,0.428978 -0.4064,0.428978 -0.4064,0 -0.4064,-0.598312 v -0.587027 q 0,-0.948267 -0.39511,-1.117601 -0.29352,-0.124178 -1.51272,-0.124178 -0.80151,0 -0.94826,0.03387 -0.48543,0.124178 -0.48543,0.677334 v 0.508001 q 0,0.09031 0,0.248355 -0.0113,0.158045 -0.0113,0.225778 v 0.146756 q 0,0.451556 0.2032,0.519289 0.079,0.02258 0.27094,0.02258 h 0.46284 q 0.7112,0 0.7112,-0.485422 0,-0.135467 -0.0339,-0.349956 -0.0339,-0.214489 -0.0339,-0.383823 0,-0.451556 0.4064,-0.451556 0.4064,0 0.4064,0.485423 0,0.09031 -0.079,0.699912 -0.0677,0.519289 -0.0677,0.9144 0,0.225778 0.0452,0.801512 0.0113,0.09031 0.0564,0.395112 0.0339,0.248356 0.0339,0.395111 0,0.406401 -0.4064,0.406401 -0.39511,0 -0.39511,-0.474134 0,-0.124178 0.0226,-0.361245 0.0339,-0.237067 0.0339,-0.361245 0,-0.485422 -0.64346,-0.485422 h -0.508 q -0.32738,0 -0.4064,0.112889 -0.0677,0.112889 -0.0677,0.485422 v 0.699912 q 0,0.180623 0.0113,0.485423 0.0113,0.372534 0.0113,0.496712 0.0113,0.451556 0.18062,0.564445 0.12418,0.07902 0.58703,0.07902 h 1.53529 q 0.66604,0 0.9144,-0.191911 0.24835,-0.203201 0.24835,-0.745068 0,-0.169333 -0.0226,-0.496711 -0.0113,-0.338667 -0.0113,-0.508001 0,-0.508 0.4064,-0.508 0.42898,0 0.42898,0.519289 0,0.2032 -0.0226,0.620889 -0.0226,0.41769 -0.0226,0.62089 0,0.158045 0.0113,0.474134 0.0226,0.3048 0.0226,0.462845 0,0.530578 -0.51929,0.530578 -0.12418,0 -0.39511,-0.02258 -0.13547,-0.01129 -0.49672,-0.01129 0.079,0 -0.88053,-0.02258 -0.95956,-0.02258 -1.65947,-0.02258 -1.06116,0 -2.07716,0.06773 -0.0451,0 -0.1016,0.01129 -0.0564,0 -0.0677,0 -0.47413,0 -0.47413,-0.4064 0,-0.361245 0.34995,-0.361245 0.0565,0 0.3048,0.02258 0.12418,0.03387 0.23707,0.03387 0.57573,0 0.57573,-0.846667 z m 7.37164,4.899382 1.56915,-1.794935 -1.56915,-1.851379 q -0.15805,-0.180623 -0.38383,-0.180623 -0.0903,0 -0.13546,0.01129 l -0.19191,0.04516 q -0.0452,0.01129 -0.15805,0.01129 -0.37253,0 -0.37253,-0.361245 0,-0.383823 0.46284,-0.383823 h 0.0339 q 0.0113,0 0.56445,0.04516 0.28222,0.02258 0.47413,0.02258 0.19191,0 0.55315,-0.03387 0.36125,-0.03387 0.54187,-0.03387 0.46285,0 0.46285,0.383823 0,0.361245 -0.42898,0.361245 -0.0903,0 -0.16933,-0.02258 l -0.16934,-0.04516 h -0.0677 q -0.0452,0 -0.0452,0.02258 0.0226,0.06773 0.1016,0.158045 l 1.02729,1.241779 1.07245,-1.241779 q 0.1016,-0.112889 0.1016,-0.158045 -0.0113,-0.02258 -0.0565,-0.02258 -0.0564,0 -0.19191,0.03387 -0.12418,0.03387 -0.19191,0.03387 -0.4064,0 -0.4064,-0.383823 0,-0.372534 0.47413,-0.372534 -0.0226,0 0.59832,0.05644 0.24835,0.02258 0.53057,0.02258 0.28223,0 0.59832,-0.03387 0.31609,-0.03387 0.45155,-0.03387 0.49671,0 0.49671,0.383823 0,0.372534 -0.38382,0.372534 -0.0903,0 -0.25964,-0.04516 -0.16934,-0.04516 -0.25965,-0.04516 -0.27093,0 -0.74507,0.541868 l -1.30951,1.490134 1.76107,2.077158 q 0.15805,0.191911 0.38382,0.191911 0.0677,0 0.2032,-0.02258 0.14676,-0.02258 0.21449,-0.02258 0.4064,0 0.4064,0.361245 0,0.395111 -0.47413,0.395111 h -0.0903 l -0.44027,-0.05644 q -0.18062,-0.02258 -0.54187,-0.02258 -0.3048,0 -0.6096,0.03387 l -0.4064,0.04516 h -0.12418 q -0.53057,0 -0.53057,-0.361245 0,-0.395111 0.41769,-0.395111 0.14675,0 0.41769,0.04516 0.0226,0.01129 0.079,0.01129 0.11289,0 0.11289,-0.09031 0,-0.03387 -0.0339,-0.06773 l -0.0339,-0.04516 -1.25306,-1.467557 -1.27565,1.467557 q -0.079,0.09031 -0.079,0.135467 0,0.05644 0.11289,0.05644 0.079,0 0.23706,-0.02258 0.15805,-0.02258 0.23707,-0.02258 0.48542,0 0.48542,0.395111 0,0.361245 -0.48542,0.361245 h -0.15804 l -0.45156,-0.04516 q -0.33867,-0.03387 -0.59831,-0.03387 -0.2032,0 -0.48543,0.03387 -0.38382,0.04516 -0.56444,0.04516 -0.47413,0 -0.47413,-0.383822 0,-0.372534 0.4064,-0.372534 0.0677,0 0.2032,0.02258 0.13546,0.01129 0.2032,0.01129 0.21449,0 0.6096,-0.451556 z"
       id="text4"
       aria-label="Ex" />
  </g>
</svg>
